<?xml version="1.0" encoding="UTF-8"?>
<svg width="526px" height="652px" viewBox="0 0 526 652" version="1.1" xmlns="http://www.w3.org/2000/svg" xmlns:xlink="http://www.w3.org/1999/xlink">
    <title>Award</title>
    <g id="Page-1" stroke="none" stroke-width="1" fill="none" fill-rule="evenodd">
        <g id="Award" fill="#FFFFFF" fill-rule="nonzero">
            <g id="Group" transform="translate(262.900000, 326.050000) scale(-1, 1) rotate(-180.000000) translate(-262.900000, -326.050000) translate(0.000000, 0.100000)">
                <path d="M202.3,650.6 C193.5,647.8 187.3,642.3 179.4,630 C170.1,615.5 158.3,606.8 143.8,603.6 C140.4,602.8 132.5,601.7 126.4,601.2 C113.6,600.1 108.3,598.1 101.7,592.1 C94.9,585.8 92.1,578.5 90.9,564.3 C90.4,557.8 89.3,549.9 88.5,546.6 C85,533 76.8,522.6 61.4,512.3 C51,505.3 46.7,500.8 43.2,493.2 C41.1,488.5 40.8,486.7 41.2,479.6 C41.6,472.1 42.1,470.3 47.3,459.4 C53.9,445.5 55.2,440.4 55.2,429.4 C55.1,420.5 52,409.2 47.4,401.2 C40.6,389.6 39,375.7 43.4,366.5 C46.3,360.5 53,353.9 62.7,347.6 C76.1,338.9 85.7,326.1 88.9,312.8 C89.5,310.2 90.4,303 90.9,296.7 C91.5,289.7 92.7,283.3 94,279.8 C98.9,266.6 112.5,259 131,259 C138.3,259 150.7,255.8 157.3,252.3 C164.8,248.2 173.5,239.7 180,230 C186.3,220.6 191.6,215.3 198.2,211.8 C201.7,209.9 204,209.5 211,209.5 C219.2,209.5 219.9,209.7 231.5,215.1 C246.8,222.3 251.4,223.5 262.5,223.4 C273.6,223.3 277.4,222.3 292.5,215.2 C304.1,209.7 304.8,209.5 313,209.5 C320,209.5 322.3,209.9 325.8,211.8 C332.3,215.3 337.7,220.6 344,230 C357.5,249.9 370,257.2 394.2,259 C412.4,260.4 421.1,264.4 427.1,273.8 C431,280 431.9,283.5 433,296.5 C433.5,302.6 434.5,309.8 435.1,312.5 C438.2,326.2 447.7,338.7 462.3,348.3 C471.6,354.4 478.3,361.2 481.1,367.3 C484.9,375.8 483.1,390.2 476.6,401.2 C472,409.2 468.9,420.3 468.9,429.3 C468.9,440.5 470.2,445.5 476.7,459.5 C481.8,470.3 482.4,472.3 482.8,479.6 C483.2,486.8 482.9,488.5 480.8,493.2 C477.2,500.9 473.1,505.1 461.3,513.2 C441.6,526.6 435.3,538 433.1,564 C432,577.9 429.5,585.2 423.9,591 C417.7,597.4 410.8,600.1 397.6,601.2 C385,602.3 376.3,604.1 369.9,606.9 C362.7,610 353.6,617.3 348.9,623.9 C346.5,627.3 342.5,632.8 340,636.3 C334.4,644 326.6,649.5 319.3,651.1 C311.5,652.7 303.9,651 291.1,644.9 C269.3,634.4 254,634.3 233.8,644.6 C219.7,651.7 211.1,653.3 202.3,650.6 Z M287.2,554 C311,549.1 331.1,538.5 348.8,521.6 C366.9,504.3 378,485.4 384.8,460.1 C387.1,451.3 387.3,448.8 387.4,430.5 C387.4,412.1 387.2,409.7 384.8,401 C374.5,363.2 352.3,335.1 319.4,318.3 C300,308.4 284.2,304.6 262,304.6 C239.8,304.6 224,308.4 204.6,318.3 C171.6,335.1 149,363.9 139.3,401 C136,413.9 135.1,436.2 137.4,450.2 C141.9,477.8 154.4,501.4 174.6,521 C204.9,550.3 246.1,562.3 287.2,554 Z" id="Shape"></path>
                <path d="M247.5,489.8 C240,474.2 233.7,461.4 233.6,461.3 C233.5,461.1 219.2,459 202,456.5 C184.7,454 170.5,451.8 170.3,451.6 C169.9,451.2 211.6,409.8 213.5,408.7 C214.3,408.3 215,406.8 215,405.6 C215,404.3 212.7,389.8 209.9,373.5 C207.2,357.1 205,343.6 205.2,343.5 C205.4,343.3 218.2,349.8 233.8,358 L262,372.7 L290.3,358 C305.8,349.8 318.6,343.3 318.8,343.5 C318.9,343.6 316.7,357.8 313.8,375 L308.6,406.2 L331.3,428.7 C343.8,441.1 353.9,451.4 353.7,451.6 C353.6,451.8 340.9,453.7 325.5,456 C310.1,458.2 295.9,460.3 294,460.6 C290.5,461.1 290.5,461.2 276.6,489.5 C268.9,505.2 262.4,518 262,518 C261.6,518 255.1,505.3 247.5,489.8 Z" id="Path"></path>
                <path d="M99.6,248.1 C96.9,243.7 0,62.5 0,61.9 C0,61.4 1,61.2 2.3,61.4 C7.2,62.5 78,71.3 78.3,70.9 C78.6,70.7 84.8,54.8 92.2,35.7 C99.6,16.5 106,0.8 106.4,0.699844747 C107.1,0.5 220,193.6 220,195 C220,195.3 216.4,195.4 211.9,195.2 C201.8,194.8 192.7,197.3 184.2,203 C176.7,208 172.4,212.8 167.2,221.7 C162.2,230.2 156.7,235.4 148.5,239.1 C135.4,245 101.5,251.3 99.6,248.1 Z" id="Path"></path>
                <path d="M405,246.8 C391.2,244.5 378,240.2 371.1,236 C365.6,232.6 362,228.4 357.2,219.9 C352.6,211.8 343.6,203.6 334.3,199.3 C327.3,195.9 325.5,195.5 316,195 L305.4,194.5 L362,97.3 C393.1,43.8 418.7,0 419,0 C419.4,0 425.7,15.8 433.1,35.1 C440.4,54.4 447,70.4 447.7,70.7 C448.3,71 466.1,68.9 487.2,66.2 C508.3,63.4 525.6,61.3 525.701914,61.4 C525.9,61.5 510.4,90.6 491.4,126.1 C472.4,161.5 449.8,203.7 441.2,219.7 L425.5,249 L421,248.9 C418.5,248.9 411.3,247.9 405,246.8 Z" id="Path"></path>
            </g>
        </g>
    </g>
</svg>
