<?xml version="1.0" encoding="utf-8"?>
<!-- Generator: Adobe Illustrator 17.0.0, SVG Export Plug-In . SVG Version: 6.00 Build 0)  -->
<!DOCTYPE svg PUBLIC "-//W3C//DTD SVG 1.1//EN" "http://www.w3.org/Graphics/SVG/1.1/DTD/svg11.dtd">
<svg version="1.1" id="Layer_1" xmlns="http://www.w3.org/2000/svg" xmlns:xlink="http://www.w3.org/1999/xlink" x="0px" y="0px"
	 width="744.136px" height="382.583px" viewBox="114.591 102.515 744.136 382.583"
	 enable-background="new 114.591 102.515 744.136 382.583" xml:space="preserve">
<g>
	<g>
		<path fill="#000000" d="M694.199,157.427c-0.932,1.675-0.87,3.394-1.049,5.018c-1.339,12.135-1.751,24.311-1.466,36.514
			c0.133,5.658-0.337,6.067-6.027,6.167c-15.541,0.271-31.077,0.716-46.583,1.857c-3.037,0.224-6.062,0.603-9.091,0.917
			c-1.812,0.188-2.854,0.978-2.968,3.017c-0.263,4.711-0.8,9.406-1.072,14.117c-0.701,12.088-2.001,24.145-1.945,36.272
			c0.005,0.687-0.017,1.373,0.011,2.06c0.096,2.468,0.87,3.278,3.38,3.245c4.885-0.064,9.715-0.84,14.541-1.469
			c9.668-1.26,19.396-1.918,29.071-3.082c3.021-0.363,6.017-0.975,9.082-0.961c3.441,0.015,4.334,0.839,4.152,4.387
			c-0.158,3.117-0.502,6.227-0.866,9.326c-1.041,8.85-2.209,17.682-2.654,26.59c-0.169,3.367-1.451,4.605-4.83,4.801
			c-9.81,0.562-19.641,0.844-29.415,1.875c-7.194,0.758-14.354,1.836-21.468,3.172c-1.34,0.252-1.873,0.92-1.978,2.309
			c-0.747,9.977-0.515,19.959-0.36,29.943c0.032,2.057,0.922,2.979,3.095,2.904c5.961-0.205,11.809-1.285,17.692-2.086
			c16.151-2.197,32.3-4.424,48.358-7.234c4.801-0.842,9.573-1.865,14.342-2.879c5.47-1.16,6.442-0.551,6.135,4.873
			c-0.321,5.697-1.089,11.369-1.532,17.061c-0.629,8.066-0.703,16.152,0.012,24.209c0.5,5.639-0.238,6.873-5.764,6.32
			c-9.064-0.906-18.124-0.566-27.178-0.318c-9.364,0.256-18.679,1.352-27.995,2.367c-18.326,1.998-36.537,4.859-54.817,7.205
			c-2.414,0.309-4.781,0.955-7.247,0.904c-3.234-0.066-3.964-0.654-4.535-3.875c-0.322-1.824-0.165-3.645,0.055-5.467
			c0.812-6.732,1.226-13.494,1.617-20.264c0.646-11.174,1.438-22.342,2.157-33.512c0.499-7.752,0.963-15.508,1.479-23.26
			c0.111-1.668,0.214-3.365,0.598-4.982c1.042-4.387,0.39-8.779,0.374-13.186c-0.036-9.906,0.341-19.813,0.458-29.719
			c0.256-21.577-0.318-43.149-0.618-64.721c-0.138-9.963-0.607-19.946-1.495-29.893c-0.12-1.347,0.13-2.732,0.256-4.095
			c0.095-1.036,0.799-1.603,1.708-1.947c1.086-0.411,2.218-0.496,3.373-0.49c7.483,0.036,14.899-0.877,22.308-1.731
			c9.985-1.152,19.945-2.526,29.916-3.814c11.856-1.533,23.737-2.908,35.513-5.012c2.921-0.522,5.797-1.296,8.691-1.961
			c0.599-0.138,1.206-0.323,1.798-0.067c5.036,2.187,10.207,1.115,15.327,0.559c12.719-1.384,25.423-2.89,38.138-4.298
			c3.261-0.361,3.745,0.133,4.242,3.442c0.345,2.296-0.147,4.564-0.134,6.837c0.028,4.417,0.237,8.833,0.449,13.246
			c0.676,14.076,1.983,28.106,3.202,42.14c0.546,6.293,1.22,12.596,2.262,18.823c3.055,18.241,4.887,36.66,8.13,54.871
			c1.443,8.104,2.801,16.225,4.716,24.23c0.794,3.318,1.95,6.551,2.973,9.814c0.267,0.852,0.445,1.959,1.59,1.979
			c1.256,0.023,1.562-1.123,1.787-2.064c1.688-7.041,3.266-14.109,4.994-21.141c3.291-13.385,6.38-26.805,8.663-40.41
			c2.484-14.807,4.513-29.661,5.84-44.621c1.095-12.339,2.608-24.639,3.498-37c0.722-10.035,1.382-20.07,1.006-30.141
			c-0.037-0.989,0.01-1.982-0.005-2.973c-0.035-2.35,1.056-3.713,3.427-4.039c6.488-0.891,12.966-1.852,19.46-2.698
			c8.089-1.053,16.146-2.28,24.038-4.387c7.139-1.906,9.1-0.045,7.978,7.358c-1.591,10.508-5.095,20.528-7.636,30.793
			c-3.186,12.873-6.055,25.835-9.624,38.601c-5.232,18.725-8.611,37.888-13.728,56.62c-4.62,16.917-7.825,34.165-12.424,51.061
			c-4.057,14.902-6.244,30.1-8.737,45.268c-0.494,3.006-0.964,6.018-1.346,9.039c-0.33,2.605-1.803,3.793-4.321,4.199
			c-6.172,0.996-12.39,1.582-18.598,2.254c-5.527,0.598-11.064,1.098-16.597,1.641c-0.076,0.008-0.15,0.021-0.227,0.031
			c-5.714,0.662-6.605,0.092-8.021-5.389c-3.338-12.924-5.201-26.17-8.422-39.111c-4.562-18.332-8.948-36.727-14.219-54.858
			c-4.66-16.03-7.69-32.481-12.796-48.361c-4.829-15.017-8.796-30.287-13.642-45.283c-2.695-8.345-4.792-16.836-7.332-25.21
			C695.112,158.941,695.084,158.135,694.199,157.427"/>
	</g>
	<g>
		<path fill="#000000" d="M468.28,300.768c0-4.879-0.078-9.76,0.024-14.639c0.084-3.959,0.65-4.596,4.514-5.275
			c15.009-2.635,30.116-4.586,45.236-6.465c19.046-2.367,38.157-4.398,56.747-9.5c1.319-0.363,2.584-0.924,3.896-1.312
			c2.71-0.803,4.647,0.361,5.152,3.145c0.216,1.191,0.343,2.426,0.296,3.633c-0.316,8.141,0.206,16.417-1.453,24.372
			c-1.369,6.562-0.496,13.006-0.77,19.49c-0.164,3.854-1.197,7.08-3.545,10.094c-8.612,11.053-15.351,23.203-21.313,35.867
			c-6.831,14.506-10.52,29.848-12.967,45.541c-1.333,8.551-0.606,17.182,0.079,25.771c0.352,4.4,0.873,8.791,1.093,13.199
			c0.155,3.115-0.61,3.857-3.706,3.803c-7.997-0.141-15.988,0.469-23.987,0.045c-5.272-0.277-10.477,0.691-15.716,1.062
			c-8.48,0.602-8.325-0.562-7.231-7.521c1.397-8.902,3.93-17.549,6.929-26.041c1.137-3.223,2.542-6.35,3.779-9.537
			c0.35-0.902,0.878-1.947,0.053-2.795c-0.797-0.816-1.758-0.115-2.568,0.16c-4.977,1.703-9.959,3.262-15.211,4.039
			c-11.667,1.73-22.693-0.02-33.401-4.918c-6.851-3.135-13.208-6.939-18.969-11.754c-2.644-2.211-4.797-4.895-6.917-7.596
			c-7.831-9.984-13.255-21.252-18.228-32.863c-5.401-12.611-8.423-25.73-9.893-39.256c-1.039-9.57-0.642-19.16,0.173-28.75
			c1.148-13.506,3.602-26.766,7.978-39.564c3.349-9.796,7.36-19.431,13.311-27.986c3.774-5.425,7.39-11.029,11.907-15.9
			c8.654-9.331,18.241-17.423,30.001-22.732c16.767-7.57,33.759-7.936,50.931-1.829c10.407,3.701,19.409,9.554,27.057,17.723
			c4.925,5.261,8.476,11.267,12.114,17.342c7.171,11.974,9.908,25.288,12.127,38.775c0.724,4.397-0.446,5.875-5.182,6.232
			c-8.968,0.676-17.888,1.746-26.805,2.873c-4.229,0.534-8.468,0.903-12.749,0.534c-1.658-0.143-2.415-0.783-2.621-2.48
			c-0.24-1.974-0.177-3.967-0.441-5.919c-1.271-9.357-4.366-18.086-10.022-25.68c-3.562-4.783-8.002-8.763-14.429-9.055
			c-8.304-0.377-15.969,1.739-22.953,6.357c-8.58,5.673-14.891,13.275-20.157,22.051c-8.089,13.481-11.703,28.115-12.812,43.611
			c-1.09,15.227,1.603,29.734,7.461,43.738c3.253,7.775,9.39,13.049,15.983,17.738c8.537,6.07,18.163,8.59,28.603,6.92
			c9.664-1.545,17.48-6.322,23.512-14.105c5.784-7.463,9.097-15.943,11.019-25.086c0.401-1.906-0.137-2.5-1.998-2.42
			c-5.26,0.23-10.451,1.068-15.671,1.652c-10.898,1.219-21.801,2.412-32.612,4.297c-0.373,0.064-0.76,0.059-1.141,0.068
			c-3.607,0.092-4.512-0.688-4.563-4.287c-0.07-4.955-0.017-9.912-0.017-14.867L468.28,300.768L468.28,300.768z"/>
	</g>
	<g>
		<path fill="#000000" d="M229.454,193.998c9.976-0.453,19.917-1.251,29.855-2.163c6.9-0.634,13.816-1.112,20.733-1.536
			c2.861-0.175,3.802,0.937,2.732,3.631c-3.319,8.357-3.002,17.181-3.781,25.884c-1.276,14.275-1.266,28.626-2.425,42.887
			c-1.769,21.764-1.19,43.532-1.043,65.301c0.048,7.156,0.075,14.33,0.368,21.484c0.417,10.178,1.005,20.35,1.653,30.516
			c0.736,11.551,1.634,23.092,2.431,34.639c0.357,5.176,1.296,10.275,1.934,15.414c0.482,3.887-0.888,6.092-4.608,6.922
			c-7.289,1.623-14.612,3.104-21.938,4.555c-1.326,0.264-2.741,0.037-4.105,0.156c-1.905,0.164-2.932-0.736-3.621-2.438
			c-2.062-5.086-4.145-10.166-6.343-15.195c-3.813-8.725-8.666-16.936-12.654-25.588c-5.228-11.342-10.605-22.631-16.213-33.785
			c-4.888-9.723-9.816-19.451-15.136-28.949c-2.347-4.191-4.515-8.461-6.687-12.73c-6.387-12.566-13.486-24.758-19.531-37.502
			c-0.545-1.148-1.453-2.129-2.224-3.164c-0.324-0.436-0.767-0.824-1.352-0.695c-0.702,0.156-0.911,0.779-0.969,1.402
			c-0.163,1.744-0.449,3.498-0.392,5.24c0.223,6.928,0.457,13.859,0.875,20.779c0.578,9.58,1.129,19.186,2.616,28.66
			c1.534,9.771,2.77,19.58,4.164,29.367c2.385,16.756,4.923,33.492,8.809,49.957c1.918,8.129,3.959,16.27,6.649,24.217
			c2.202,6.5,1.642,7.211-5.059,8.316c-17.74,2.926-35.628,4.84-53.352,7.873c-1.933,0.33-3.956,0.238-5.932,0.178
			c-2.693-0.084-3.319-0.76-3.488-3.443c-0.299-4.738,0.271-9.443,0.657-14.146c0.959-11.691,2.257-23.348,3.094-35.051
			c1.423-19.924,2.089-39.861,2.408-59.83c0.216-13.496,0.251-26.988,0.135-40.48c-0.107-12.496-0.342-24.999-0.92-37.479
			c-0.584-12.627-0.808-25.275-2.019-37.874c-0.342-3.555-2.167-5.79-4.965-7.416c-3.684-2.142-4.816-5.421-4.837-9.411
			c-0.011-2.093,0.724-3.299,2.908-3.574c5.591-0.705,11.168-1.516,16.759-2.222c6.875-0.869,13.756-1.684,20.638-2.496
			c1.131-0.134,2.278-0.181,3.418-0.189c2.43-0.015,3.953,1.098,4.696,3.504c1.53,4.959,3.375,9.83,5.736,14.441
			c4.76,9.293,8.675,18.989,13.436,28.26c3.763,7.327,6.777,14.985,10.595,22.268c5.304,10.118,10.419,20.344,16.049,30.278
			c3.946,6.965,7.303,14.232,11.379,21.113c4.812,8.121,9.718,16.188,14.598,24.27c0.559,0.926,1.255,1.953,2.499,1.557
			c1.255-0.402,0.849-1.68,0.808-2.592c-0.742-16.67-0.295-33.385-1.74-50.021c-2.174-25.022-4.368-50.049-9.653-74.669
			c-1.485-6.919-2.996-13.835-5.279-20.554c-0.515-1.515-0.648-3.108-0.752-4.721c-0.144-2.207,0.885-3.097,2.9-3.145
			C225.796,193.964,227.625,193.998,229.454,193.998"/>
	</g>
	<g>
		<path fill="#000000" d="M326.585,276.011c0,4.042-0.025,8.083,0.008,12.122c0.025,3.158,0.527,3.625,3.775,3.74
			c5.113,0.18,10.213-0.24,15.293-0.645c9.485-0.758,18.961-1.678,28.376-3.107c4.142-0.629,8.27-1.352,12.415-1.953
			c3.011-0.438,4.069,0.463,4.204,3.531c0.171,3.904-0.639,7.736-1.052,11.592c-0.821,7.652-0.91,15.352-1.652,23.006
			c-0.154,1.588-0.215,3.191-0.446,4.77c-0.558,3.826-1.265,4.627-5.03,4.93c-8.956,0.719-17.927,1.254-26.884,1.957
			c-9.031,0.709-18.053,1.537-27.08,2.303c-1.719,0.146-2.363,1.174-2.371,2.766c-0.015,3.049-0.074,6.098-0.033,9.146
			c0.127,9.525-0.088,19.057,0.525,28.572c0.447,6.934,0.404,6.289,6.569,5.541c21.109-2.562,42.004-6.434,62.901-10.277
			c4.64-0.852,9.186-2.205,13.797-3.23c3.766-0.84,4.662-0.301,5.167,3.561c0.563,4.297,0.91,8.631,1.157,12.959
			c0.493,8.605,1.747,17.117,3.012,25.625c1.015,6.834,0.358,7.688-6.362,7.688c-9.601,0-19.208-0.24-28.792,0.498
			c-12.372,0.953-24.748,1.883-37.071,3.379c-14.897,1.809-29.738,4.018-44.587,6.166c-3.913,0.564-7.764,1.621-11.777,1.391
			c-2.822-0.16-3.447-0.713-3.601-3.559c-0.333-6.189,0.71-12.309,1.016-18.467c0.341-6.844,0.777-13.684,1.245-20.52
			c0.478-6.967,1.056-13.928,1.569-20.893c0.258-3.492,0.591-6.984,0.678-10.482c0.238-9.6,0.182-19.211,0.569-28.803
			c1.134-28.115,1.041-56.241,0.798-84.365c-0.069-7.995-0.904-15.959-1.606-23.923c-0.334-3.791-0.573-7.591-0.95-11.378
			c-0.428-4.298-1.674-8.489-1.715-12.842c-0.003-0.303-0.081-0.604-0.099-0.908c-0.26-4.255,0.892-5.655,5.119-5.587
			c16.578,0.267,33.044-1.37,49.424-3.47c16.99-2.178,34.008-4.327,50.819-7.763c6.119-1.25,12.292-2.24,18.443-3.328
			c0.671-0.119,1.366-0.15,2.048-0.141c2.929,0.039,3.723,1.084,2.775,3.908c-3.58,10.669-4.971,21.816-7.339,32.751
			c-1.115,5.15-1.913,10.301-2.33,15.533c-0.166,2.077-1.31,3.194-3.386,3.251c-2.132,0.059-4.278,0.184-6.397,0.019
			c-10.434-0.817-20.892-0.654-31.311-0.23c-11.631,0.474-23.227,1.755-34.846,2.582c-2.535,0.18-3.403,1.48-3.542,3.768
			c-0.267,4.409-0.824,8.811-0.867,13.22C327.075,258.949,326.29,267.468,326.585,276.011"/>
	</g>
	<g>
		<path fill="#000000" d="M120.077,479.133c0-0.457-0.018-0.916,0.003-1.373c0.167-3.723,0.618-4.424,4.253-4.928
			c11.086-1.539,22.191-2.941,33.288-4.404c12.229-1.615,24.458-3.227,36.685-4.863c14.187-1.896,28.373-3.805,42.556-5.736
			c12.601-1.717,25.193-3.496,37.796-5.199c15.544-2.102,31.098-4.135,46.642-6.232c14.945-2.014,29.879-4.102,44.825-6.102
			c14.717-1.969,29.444-3.852,44.163-5.803c12.986-1.721,25.964-3.5,38.95-5.213c11.097-1.465,22.2-2.871,33.303-4.289
			c0.753-0.098,1.521-0.084,2.282-0.094c4.19-0.055,4.615,0.406,4.217,4.543c-0.436,4.523-1.085,5.406-5.559,5.992
			c-9.51,1.25-19.053,2.246-28.566,3.48c-14.421,1.871-28.827,3.865-43.242,5.791c-14.262,1.906-28.536,3.732-42.788,5.711
			c-12.823,1.779-25.62,3.736-38.434,5.578c-21.03,3.023-42.065,6.016-63.097,9.025c-14.4,2.061-28.795,4.152-43.198,6.191
			c-21.037,2.977-42.077,5.934-63.12,8.871c-11.616,1.621-23.241,3.174-34.859,4.775
			C120.789,485.598,120.019,484.896,120.077,479.133"/>
	</g>
	<g>
		<path fill="#000000" d="M841.374,390.895c-0.018,4.611-0.24,4.986-4.726,5.506c-10.812,1.254-21.636,2.41-32.455,3.594
			c-10.819,1.186-21.637,2.396-32.461,3.531c-12.494,1.309-24.995,2.539-37.493,3.814c-9.919,1.01-19.836,2.051-29.756,3.051
			c-9.77,0.984-19.544,1.902-29.312,2.906c-10.599,1.09-21.193,2.24-31.788,3.377c-9.233,0.99-18.467,1.992-27.7,3.002
			c-10.593,1.16-21.188,2.299-31.774,3.51c-9.001,1.029-17.986,2.189-26.99,3.189c-1.837,0.203-4.21,0.576-5.239-1.248
			c-1.205-2.133-1.009-4.732-0.237-7.121c0.354-1.096,1.424-1.264,2.437-1.379c6.507-0.729,13.006-1.529,19.521-2.18
			c17.501-1.748,35.015-3.357,52.509-5.168c16.205-1.676,32.391-3.535,48.585-5.322c17.857-1.971,35.714-3.959,53.572-5.928
			c19.899-2.193,39.804-4.34,59.699-6.568c15.435-1.73,30.856-3.557,46.285-5.33c0.755-0.088,1.521-0.096,2.282-0.105
			C841.221,385.953,841.393,386.123,841.374,390.895"/>
	</g>
	<g>
		<path fill="#000000" d="M853.906,102.569c-0.684,0.026-1.365,0.118-2.047,0.189c-9.539,0.996-19.08,1.989-28.619,2.991
			c-10.979,1.154-21.963,2.282-32.936,3.485c-9.842,1.079-19.668,2.284-29.51,3.359c-12.28,1.341-13.631,1.426-32.256,3.391
			c-13.781,1.455-27.561,2.919-41.342,4.383c-14.84,1.578-29.686,3.131-44.523,4.748c-14.607,1.592-29.21,3.232-43.812,4.885
			c-1.413,0.16-2.826,0.323-4.239,0.483c-3.016,0.313-6.031,0.625-9.047,0.943c-13.781,1.455-27.561,2.919-41.342,4.383
			c-14.84,1.578-29.686,3.131-44.523,4.748c-14.607,1.592-29.21,3.232-43.811,4.885c-13.013,1.474-26.025,2.952-39.028,4.515
			c-1.201,0.145-2.119,0.276-2.827,0.461c-0.092,0.003-0.173,0.006-0.269,0.01c-0.684,0.026-1.365,0.118-2.047,0.189
			c-9.54,0.996-19.08,1.989-28.62,2.991c-10.979,1.154-21.962,2.282-32.936,3.485c-9.841,1.079-19.668,2.284-29.509,3.359
			c-10.747,1.174-21.504,2.257-32.256,3.391c-13.781,1.455-27.561,2.919-41.341,4.383c-14.841,1.578-29.686,3.131-44.524,4.748
			c-14.607,1.592-29.21,3.232-43.811,4.885c-13.013,1.474-26.025,2.952-39.028,4.515c-4.985,0.599-5.182,0.957-5.1,6.023
			c0.064,3.925,1.05,4.893,4.964,4.546c4.019-0.357,8.024-0.87,12.036-1.308c12.036-1.316,24.073-2.633,36.11-3.941
			c10.523-1.142,21.049-2.254,31.571-3.413c10.218-1.125,20.429-2.315,30.648-3.432c9.614-1.051,19.236-2.033,28.853-3.066
			c10.146-1.09,20.288-2.218,30.434-3.305c11.203-1.2,22.409-2.367,33.613-3.559c10.449-1.112,20.901-2.201,31.345-3.368
			c10.519-1.176,21.072-2.044,31.585-3.229c9.382-1.057,18.755-2.206,28.148-3.163c1.615-0.164,2.67-0.319,3.362-0.686
			c3.839-0.354,7.666-0.837,11.499-1.255c12.036-1.316,24.073-2.633,36.11-3.941c10.523-1.142,21.049-2.254,31.571-3.413
			c10.218-1.125,20.429-2.315,30.648-3.432c9.613-1.051,19.235-2.033,28.854-3.066c0.697-0.075,1.394-0.152,2.091-0.227
			c0.484,0.018,1.027,0.001,1.652-0.055c4.02-0.357,8.024-0.87,12.037-1.308c12.035-1.316,24.072-2.633,36.109-3.941
			c7.868-0.854,15.737-1.696,23.605-2.548c6.634-0.704,13.267-1.412,19.896-2.153c10.52-1.176,21.072-2.044,31.586-3.229
			c9.381-1.057,18.754-2.206,28.146-3.163c1.18-0.12,2.054-0.238,2.714-0.434c5.186-0.566,10.372-1.133,15.56-1.688
			c11.203-1.2,22.408-2.367,33.613-3.559c10.447-1.112,20.9-2.201,31.344-3.368c10.52-1.176,21.072-2.044,31.586-3.229
			c9.381-1.057,18.754-2.206,28.146-3.163c4.277-0.435,4.639-0.802,4.684-5.212c0.002-0.305,0-0.61,0.002-0.915
			C858.742,102.393,858.742,102.388,853.906,102.569z"/>
	</g>
</g>
</svg>
